<svg width="146" height="36" viewBox="0 0 146 36" fill="none" xmlns="http://www.w3.org/2000/svg">
<path d="M2.90263 14.1263C2.77989 12.2238 2.65715 10.345 2.57733 8.46747C2.57733 8.30219 2.83245 8.01324 3.01643 7.96924C4.6379 7.5816 6.25447 7.13688 7.90171 6.89907C10.7933 6.4676 13.7319 6.4184 16.6372 6.75281C18.1446 6.93117 19.6128 7.2546 20.9792 7.92763C23.23 9.03704 24.4775 10.8932 24.9044 13.225C25.1817 14.7554 25.2051 16.3309 25.2885 17.8886C25.3131 18.3559 25.3916 18.5462 25.9288 18.545C27.278 18.545 28.6272 18.5842 29.9764 18.6555C30.5149 18.6841 30.7025 18.5545 30.7749 18.0015C31.0569 15.8671 31.6333 13.81 32.7996 11.9479C34.0556 9.89464 36.0481 8.36215 38.3962 7.64344C42.8448 6.24151 47.3573 6.15113 51.8293 7.50074C54.4812 8.301 56.4989 9.92291 57.2129 12.6483C57.9808 15.583 57.6069 18.3369 55.2643 20.5617C53.817 21.9374 51.9613 22.5653 50.0233 22.9779C47.0796 23.6045 44.0954 23.5355 41.1113 23.4702C40.85 23.4642 40.5875 23.4702 40.3336 23.4702C39.9878 25.5475 41.0845 28.1825 43.4285 29.3478C45.3382 30.2991 47.378 30.4275 49.4594 30.2456C51.6441 30.0447 53.7633 29.4127 55.6865 28.3882C55.746 28.5577 55.7899 28.732 55.8178 28.909C55.9123 30.5737 55.986 32.2313 56.0903 33.8913C56.1173 34.3146 55.9898 34.5762 55.5531 34.6678C53.744 35.0495 51.9508 35.5738 50.1196 35.7807C46.987 36.1375 43.8384 36.0756 40.7242 35.4716C37.8001 34.9044 35.2047 33.7748 33.3353 31.4049C31.9492 29.6427 31.2856 27.5939 30.8905 25.4464C30.7899 24.9018 30.7519 24.3453 30.6255 23.8079C30.5863 23.6378 30.3581 23.3893 30.206 23.3833C28.6765 23.3144 27.1396 23.2894 25.6114 23.2466C25.2557 23.2371 25.1808 23.4131 25.1649 23.7222C24.9897 27.2086 24.98 30.6927 25.3028 34.1731C25.3359 34.5298 25.3837 34.8759 25.4255 35.273C25.2366 35.3015 25.0857 35.3372 24.9348 35.3455C20.9363 35.5417 16.939 35.7641 12.9405 35.9211C10.3831 36.0209 7.83189 35.9472 5.36526 35.1458C2.29026 34.1457 0.50922 32.0732 0.122716 28.972C-0.0485295 27.718 -0.0386809 26.4469 0.15198 25.1955C0.561537 22.7781 2.19768 21.2168 4.41646 20.1835C6.33597 19.2905 8.38306 18.8351 10.4878 18.6651C12.2356 18.5247 13.9945 18.4867 15.7497 18.4368C16.1508 18.4249 16.3127 18.3262 16.2722 17.9326C16.1875 17.1264 16.1924 16.3047 16.0268 15.5152C15.6084 13.4699 14.2996 12.445 12.1605 12.269C9.05244 12.0109 6.16763 12.7327 3.38833 14.0003C3.29634 14.0431 3.20437 14.0859 3.1087 14.1192C3.04049 14.129 2.97138 14.1313 2.90263 14.1263ZM42.2579 18.9017C43.6665 18.9318 45.0702 18.7308 46.4097 18.3071C48.4163 17.6817 49.3852 15.3416 48.4848 13.4807C48.198 12.9183 47.7432 12.4526 47.1797 12.1441C44.9841 10.999 42.0466 12.005 40.9833 14.1858C40.3406 15.5033 40.2266 16.9207 40.1457 18.3476C40.1286 18.6401 40.2267 18.7863 40.5481 18.7982C41.1184 18.8244 41.6875 18.8684 42.2579 18.9017ZM16.1072 30.2836C16.1071 28.2384 16.107 26.2835 16.1069 24.3287C16.1069 24.0718 16.1069 23.8138 16.1167 23.557C16.1252 23.2109 15.9155 23.1063 15.6064 23.1277C14.4498 23.2086 13.2686 23.18 12.1414 23.4024C9.37802 23.9494 8.26072 25.8923 9.07527 28.4905C9.37704 29.4584 10.048 30.028 11.0096 30.2896C12.6949 30.7438 14.3888 30.5999 16.1072 30.2836Z" fill="#7D3F98"/>
<path d="M92.2441 35.3218L82.6709 35.3218C83.0065 26.0386 83.0834 16.7851 82.6549 7.50312C83.5429 7.45437 84.3966 7.42346 85.2466 7.35925C88.1167 7.13927 90.9819 6.85032 93.8545 6.69574C96.9527 6.52926 100.063 6.41987 103.095 7.30336C106.898 8.40921 108.615 10.7089 109.031 14.2821C109.268 16.2976 109.154 18.3535 109.189 20.3904C109.242 24.0159 109.271 27.6438 109.337 31.2658C109.358 32.374 109.471 33.4787 109.536 34.5857C109.549 34.8164 109.536 35.0495 109.536 35.3158L99.9947 35.3158C99.9701 35.1539 99.9553 34.9907 99.9505 34.8271C100.05 30.7485 100.195 26.67 100.241 22.5914C100.266 20.4356 100.211 18.2715 100.05 16.1216C99.844 13.3867 98.6456 12.2844 95.8344 12.2274C94.7084 12.2048 93.5763 12.4937 92.4479 12.6447C92.0983 12.6923 92.0039 12.9039 92.0039 13.2393C92.0201 19.3203 92.0155 25.4012 92.0428 31.4822C92.0428 32.569 92.1741 33.6547 92.2416 34.7415C92.2539 34.9056 92.2441 35.0863 92.2441 35.3218Z" fill="#7D3F98"/>
<path d="M116.005 14.225C115.913 12.5413 115.815 10.9479 115.744 9.34977C115.686 8.06675 115.679 7.97162 117.007 7.69219C119.034 7.26769 121.084 6.87291 123.146 6.6779C125.623 6.44008 128.123 6.45554 130.596 6.87053C132.967 7.26887 135.148 8.02989 136.632 10.0204C137.611 11.3314 138.169 12.8932 138.238 14.5104C138.36 16.998 138.368 19.4962 138.304 21.9874C138.2 26.0457 137.989 30.1029 138.398 34.1576C138.435 34.5263 138.473 34.8949 138.521 35.3562C137.907 35.3562 137.359 35.3336 136.817 35.3562C134.126 35.493 131.437 35.6606 128.745 35.7855C125.546 35.9329 122.346 36.166 119.178 35.3657C115.686 34.4834 113.577 32.1778 113.159 28.695C112.947 26.9399 112.96 25.2181 113.779 23.5819C114.73 21.6865 116.376 20.5676 118.328 19.8244C120.851 18.8636 123.502 18.5604 126.188 18.4819C127.088 18.4558 127.987 18.4403 128.886 18.4356C129.162 18.4356 129.399 18.413 129.361 18.0693C129.238 16.992 129.238 15.879 128.943 14.8481C128.475 13.2191 127.121 12.4105 125.23 12.2607C122.211 12.0228 119.398 12.7042 116.683 13.9099C116.497 14.0015 116.313 14.0859 116.005 14.225ZM129.175 30.2777C129.203 30.2251 129.224 30.1696 129.238 30.1124C129.238 27.9375 129.225 25.7615 129.228 23.5867C129.228 23.2074 129.016 23.1027 128.683 23.1253C127.568 23.2026 126.435 23.1919 125.342 23.3857C122.927 23.8162 121.838 25.1539 121.956 27.3596C122.05 29.1171 122.91 30.1338 124.611 30.418C126.127 30.671 127.679 30.6233 129.175 30.2777Z" fill="#7D3F98"/>
<path d="M78.5102 29.2824C78.6329 31.1445 78.7556 32.9602 78.8869 34.776C78.9066 35.0661 78.9103 35.3194 78.5067 35.3907C74.9633 36.0138 71.4173 36.3646 67.9143 35.2135C65.4955 34.4192 63.9966 32.7343 63.4126 30.3549C63.1464 29.2386 63.0135 28.0963 63.0163 26.9506C63.0161 22.6699 63.0736 18.3892 63.1384 14.1085C63.1469 13.5377 62.9875 13.3356 62.3889 13.3665C61.5598 13.4105 60.727 13.3784 59.8254 13.3784C59.8254 11.8801 59.8094 10.458 59.851 9.03823C59.851 8.90505 60.2091 8.71718 60.4275 8.66724C62.1127 8.28197 63.6606 7.66365 64.7988 6.33306C65.9369 5.00248 66.4349 3.42813 66.7794 1.78363C66.9021 1.20454 66.9916 0.619513 67.1019 3.4825e-07L72.4166 3.75832e-07C72.3063 2.46616 72.1972 4.92281 72.0845 7.46032L72.8683 7.46032C74.3818 7.46032 75.8942 7.46983 77.4065 7.46032C77.7953 7.46032 77.9535 7.56258 77.9499 7.95973C77.9344 9.60463 77.9345 11.2499 77.9501 12.8956C77.9501 13.3011 77.7735 13.3927 77.3957 13.3903C75.8221 13.376 74.2484 13.401 72.6747 13.376C72.1682 13.3689 72.0112 13.5282 72.0137 14.0217C72.0347 17.7078 71.9919 21.394 72.0522 25.0802C72.0682 26.0933 72.2878 27.1218 72.5564 28.1076C72.7773 28.9185 73.447 29.4001 74.3031 29.6201C75.5616 29.9423 76.5624 29.8769 78.5102 29.2824Z" fill="#7D3F98"/>
<path d="M143.166 8.30932C143.166 8.87652 143.183 9.44609 143.156 10.0133C143.148 10.1691 143.011 10.3201 142.934 10.4735C142.869 10.3308 142.752 10.1881 142.749 10.043C142.73 9.31172 142.741 8.57925 142.748 7.84796C142.748 7.75165 142.766 7.65414 142.775 7.53642C143.232 7.3533 143.498 7.4627 143.644 7.93239C143.835 8.5519 144.073 9.15714 144.29 9.76952L144.467 9.78617C144.701 9.15239 144.93 8.51742 145.17 7.88363C145.346 7.41751 145.352 7.41989 145.999 7.54356C145.999 8.41635 146.006 9.30221 145.989 10.1881C145.989 10.2856 145.847 10.3807 145.77 10.477C145.705 10.3748 145.587 10.2749 145.583 10.1714C145.566 9.54954 145.574 8.92527 145.574 8.30219L145.411 8.27128C145.175 8.88841 144.948 9.50911 144.693 10.1191C144.635 10.2582 144.478 10.3569 144.366 10.4758C144.267 10.3653 144.128 10.2701 144.074 10.1417C143.821 9.52695 143.59 8.90268 143.351 8.28316L143.166 8.30932Z" fill="#7D3F98"/>
<path d="M141.932 8.28911C141.782 8.23065 141.638 8.16108 141.5 8.08102C141.389 8.00254 141.318 7.83012 141.203 7.80396C140.835 7.71954 140.363 7.56615 140.181 8.02394C139.984 8.51266 140.451 8.58995 140.806 8.68864C141.044 8.74655 141.278 8.81681 141.508 8.89911C142.122 9.14525 142.309 9.88486 141.775 10.2273C141.413 10.4651 140.863 10.4949 140.403 10.4758C139.943 10.4568 139.627 10.1584 139.545 9.51149C139.774 9.6411 139.913 9.71363 140.045 9.79568C140.257 9.92767 140.45 10.1358 140.679 10.1845C141.039 10.2606 141.472 10.2582 141.587 9.80757C141.71 9.31291 141.277 9.238 140.923 9.13574C140.664 9.07984 140.41 9.00755 140.16 8.91932C139.547 8.65416 139.49 7.96806 140.026 7.58279C140.736 7.081 141.717 7.3866 141.932 8.28911Z" fill="#7D3F98"/>
</svg>
