<svg width="172" height="57" viewBox="0 0 172 57" fill="none" xmlns="http://www.w3.org/2000/svg">
<path d="M42.6803 24.5541C42.6803 24.9801 42.2262 25.4509 41.6359 26.1683C39.6153 28.6121 35.1426 32.9615 35.1426 43.7455C35.1426 49.3281 36.0734 51.6373 36.0734 54.2605C36.0734 55.4487 35.8237 56.0765 35.2107 56.0765C33.7803 56.0765 31.3737 50.18 31.3737 43.1402C31.3737 28.3655 40.8186 24.2402 42.2717 24.2402C42.5668 24.2178 42.6803 24.3747 42.6803 24.5541ZM18.9092 24.2178C20.3622 24.2178 29.8071 28.343 29.8071 43.1178C29.8071 50.1801 27.4005 56.0541 25.9701 56.0541C25.3344 56.0541 25.1074 55.4263 25.1074 54.2381C25.1074 51.6149 26.0382 49.3057 26.0382 43.7231C26.0382 32.9391 21.5428 28.5897 19.5449 26.1459C18.9546 25.4285 18.5005 24.9576 18.5005 24.5317C18.4778 24.3747 18.614 24.2178 18.9092 24.2178Z" fill="#0982C6"/>
<path d="M27.1514 27.1772C27.1514 29.1053 28.6952 30.6747 30.6024 30.6747C32.5095 30.6747 34.0534 29.1053 34.0534 27.1772C34.0534 25.2491 32.5095 23.6797 30.6024 23.6797C28.6725 23.6797 27.1514 25.2491 27.1514 27.1772Z" fill="#F8971F"/>
<path d="M60.0492 49.1263C55.1451 46.1445 47.6754 43.0505 36.8683 42.064C36.8456 42.1986 36.7548 42.9832 36.7548 43.7455C36.7548 44.1042 36.8229 44.5751 36.8229 44.6647C47.3803 45.3373 54.8953 47.5569 59.981 49.3505C60.0719 49.3953 60.1854 49.4402 60.2308 49.4402C60.2762 49.4402 60.3216 49.3953 60.3216 49.3505C60.3443 49.2832 60.2535 49.2384 60.0492 49.1263ZM36.1872 9.2861C35.3698 8.54624 34.666 7.42524 35.2109 5.72133C35.7331 4.08467 37.0045 2.7619 38.3441 2.38076C39.2522 3.43449 39.5474 5.25051 39.0252 6.88716C38.503 8.6135 37.2997 9.15158 36.1872 9.2861ZM44.1563 15.8327C43.8611 14.8238 43.8839 13.5683 45.2234 12.4473C46.4948 11.3936 48.2203 10.9452 49.5145 11.3487C49.6961 12.6715 48.9923 14.2857 47.7208 15.3395C46.3813 16.4605 45.1099 16.2811 44.1563 15.8327ZM44.406 25.6975C44.7466 24.711 45.4504 23.7021 47.1532 23.5227C48.7652 23.3434 50.4226 23.9487 51.24 24.9576C50.6497 26.1235 49.1739 27.0427 47.5619 27.222C45.8591 27.4238 44.9509 26.5943 44.406 25.6975ZM41.5226 29.2847C42.0675 28.5448 42.953 27.8722 44.4288 28.1637C45.8591 28.4327 47.0851 29.3744 47.5165 30.4505C46.6992 31.3025 45.2007 31.706 43.7703 31.4146C42.2946 31.1231 41.7497 30.1815 41.5226 29.2847ZM32.8497 19.9356C31.8507 19.0612 31.0333 17.716 31.6691 15.6534C32.2821 13.6804 33.8032 12.0886 35.4379 11.6626C36.5277 12.9181 36.891 15.0929 36.2553 17.0658C35.6196 19.1284 34.1665 19.7786 32.8497 19.9356ZM36.6413 22.1103C36.3234 20.9669 36.3461 19.5544 37.8446 18.2989C39.2749 17.1107 41.2275 16.6174 42.6578 17.0658C42.8622 18.5455 42.0675 20.3615 40.6372 21.5498C39.1387 22.8277 37.7311 22.626 36.6413 22.1103ZM39.1614 14.1288C38.4349 12.9854 38.0035 11.4608 39.2068 9.59997C40.3647 7.85122 42.3173 6.68538 44.0201 6.7078C44.7466 8.25478 44.4742 10.4743 43.3163 12.2231C42.1129 14.1064 40.5236 14.3306 39.1614 14.1288ZM44.2698 21.079C44.2925 19.8235 44.7239 18.411 46.6083 17.559C48.402 16.7519 50.5362 16.8192 51.853 17.6936C51.6259 19.263 50.2864 20.8772 48.4928 21.6843C46.6083 22.5139 45.2234 21.8861 44.2698 21.079ZM27.8094 6.68538C27.8094 4.30887 28.9446 2.02204 30.602 0.990723C32.2594 2.02204 33.3719 4.30887 33.3719 6.68538C33.3719 9.174 31.9869 10.3623 30.602 11.0124C29.1943 10.3623 27.8094 9.174 27.8094 6.68538ZM0.836914 49.3505C0.836914 49.3953 0.859618 49.4402 0.92773 49.4402C0.973138 49.4402 1.06395 49.3953 1.17748 49.3505C6.26319 47.5569 13.8009 45.3373 24.3356 44.6647C24.3583 44.5751 24.4038 44.1042 24.4038 43.7455C24.4038 42.9832 24.3129 42.1986 24.2902 42.064C13.4831 43.0505 6.01344 46.1445 1.10936 49.1263C0.92773 49.2384 0.836914 49.2832 0.836914 49.3505ZM22.1333 6.88716C21.6111 5.25051 21.9063 3.43449 22.8145 2.38076C24.1767 2.73948 25.4481 4.08467 25.9476 5.72133C26.4925 7.42524 25.7887 8.54624 24.9714 9.2861C23.8816 9.15158 22.6782 8.6135 22.1333 6.88716ZM13.4604 15.3395C12.189 14.2633 11.4851 12.6715 11.6668 11.3487C12.9609 10.9452 14.6864 11.3711 15.9578 12.4473C17.2974 13.5683 17.3201 14.8238 17.0249 15.8327C16.0486 16.2811 14.7999 16.4605 13.4604 15.3395ZM13.6193 27.2445C11.9846 27.0651 10.5089 26.1459 9.94125 24.98C10.7586 23.9487 12.416 23.3658 14.028 23.5452C15.7308 23.7245 16.4346 24.7334 16.7752 25.7199C16.2303 26.5943 15.3221 27.4238 13.6193 27.2445ZM17.3882 31.4146C15.9578 31.6836 14.4594 31.28 13.6647 30.4505C14.0961 29.3744 15.3221 28.4327 16.7525 28.1637C18.2509 27.8722 19.1137 28.5448 19.6586 29.2847C19.4316 30.1815 18.8867 31.1231 17.3882 31.4146ZM24.9032 17.0658C24.2902 15.0929 24.6308 12.9181 25.7206 11.6626C27.3553 12.0886 28.8765 13.7028 29.4895 15.6534C30.1252 17.716 29.3078 19.0388 28.3089 19.9356C26.992 19.7786 25.5617 19.1284 24.9032 17.0658ZM20.5441 21.5722C19.1137 20.384 18.3191 18.5679 18.5234 17.0882C19.9765 16.6398 21.9063 17.1331 23.3367 18.3213C24.8351 19.5768 24.8578 20.9893 24.54 22.1327C23.4502 22.626 22.0425 22.8277 20.5441 21.5722ZM17.8423 12.2679C16.6844 10.5192 16.4119 8.2772 17.1384 6.75264C18.864 6.73022 20.8165 7.87364 21.9517 9.64481C23.155 11.4832 22.7236 13.0302 21.9971 14.1736C20.6576 14.3306 19.0683 14.1064 17.8423 12.2679ZM12.6884 21.6619C10.8948 20.8548 9.53258 19.2405 9.32824 17.6711C10.6678 16.7968 12.7793 16.7295 14.5729 17.5366C16.4573 18.3886 16.8887 19.801 16.9114 21.0566C15.9578 21.8861 14.5729 22.5139 12.6884 21.6619Z" fill="#56B948"/>
<path d="M121.282 42.0865V28.4103C121.282 26.5719 121.101 23.0744 121.055 22.2673H125.346L125.551 25.0473H125.641C126.141 24.2626 127.753 21.8189 131.499 21.8189C136.017 21.8189 138.537 25.0922 138.537 29.195V42.0641H133.747V30.1367C133.747 27.6256 132.316 25.7199 129.887 25.7199C127.367 25.7199 126.027 27.7153 126.027 30.1367V42.0641H121.282V42.0865ZM93.3107 22.3345H88.5201V42.0865H93.3107V22.3345ZM161.559 42.0865C161.4 40.9879 160.946 38.0733 160.946 35.5623V22.7157C160.197 22.5363 157.472 21.8189 154.362 21.8189C146.257 21.8189 142.76 27.1772 142.76 32.984C142.76 38.3199 145.485 42.5125 150.684 42.5125C154.498 42.5125 156.201 40.0687 156.837 38.7907H156.95C156.996 39.3961 157.177 41.5036 157.223 42.0865H161.559ZM156.178 32.289C156.178 36.8178 154.385 38.7011 151.796 38.7011C149.185 38.7011 147.71 36.5039 147.71 32.6701C147.71 28.7466 150.003 25.4957 154.203 25.4957C155.066 25.4957 155.679 25.5854 156.201 25.6975V32.289H156.178ZM83.7523 37.2438C82.4582 37.8491 80.3694 38.2527 78.3487 38.2527C72.8543 38.2527 68.7903 34.374 68.7903 28.4552C68.7903 22.5811 72.8089 18.6577 78.3487 18.6577C81.0959 18.6577 83.0485 19.3078 83.7523 19.6441V15.4068C82.549 14.9584 80.5964 14.51 77.8492 14.51C69.3125 14.51 63.5684 20.3391 63.5684 28.4327C63.5684 36.1004 68.8584 42.3555 77.8492 42.3555C80.4829 42.3555 82.4582 41.952 83.7523 41.4811V37.2438ZM111.338 39.71V41.1897C111.338 45.2253 108.818 46.7947 105.684 46.7947C102.869 46.7947 100.803 45.9651 100.145 45.7409V49.7317C100.69 49.8662 102.96 50.5836 106.207 50.5836C111.996 50.5836 115.856 48.2295 115.856 40.1584V22.7381C115.107 22.5587 112.405 21.8413 109.272 21.8413C101.166 21.8413 97.6699 27.1996 97.6699 33.0064C97.6699 38.3424 100.394 42.5349 105.594 42.5349C109.022 42.5349 110.679 40.4947 111.224 39.7324H111.338V39.71ZM111.088 32.289C111.088 36.8178 109.294 38.7011 106.683 38.7011C104.072 38.7011 102.597 36.5039 102.597 32.6701C102.597 28.7466 104.867 25.4957 109.09 25.4957C109.953 25.4957 110.566 25.5854 111.088 25.6975V32.289ZM87.9525 17.1555C87.9525 18.7473 89.2694 20.0253 90.9268 20.0253C92.5615 20.0253 93.8783 18.7473 93.8783 17.1555C93.8783 15.5637 92.5615 14.2858 90.9268 14.2858C89.2921 14.2858 87.9525 15.5861 87.9525 17.1555Z" fill="#0982C6"/>
<path d="M170.368 41.5035C169.846 42.0192 169.21 42.2882 168.484 42.2882C167.734 42.2882 167.121 42.0192 166.599 41.5035C166.077 40.9879 165.827 40.3601 165.827 39.6427C165.827 38.9252 166.077 38.2975 166.599 37.7818C167.121 37.2661 167.734 37.0195 168.484 37.0195C169.21 37.0195 169.846 37.2661 170.368 37.7818C170.89 38.2975 171.14 38.9028 171.14 39.6427C171.14 40.3601 170.89 40.9879 170.368 41.5035ZM166.849 38.0284C166.395 38.4768 166.19 38.9925 166.19 39.6202C166.19 40.248 166.417 40.7861 166.849 41.2345C167.303 41.6829 167.825 41.9071 168.461 41.9071C169.097 41.9071 169.641 41.6829 170.073 41.2345C170.527 40.7861 170.731 40.248 170.731 39.6202C170.731 38.9925 170.504 38.4544 170.073 38.0284C169.619 37.58 169.074 37.3558 168.461 37.3558C167.848 37.3783 167.303 37.6024 166.849 38.0284ZM168.415 38.1854C168.779 38.1854 169.051 38.2302 169.21 38.2975C169.505 38.4096 169.664 38.6562 169.664 39.0373C169.664 39.3064 169.573 39.4857 169.369 39.5978C169.278 39.6651 169.119 39.7099 168.938 39.7323C169.165 39.7772 169.324 39.8669 169.437 40.0238C169.551 40.1807 169.596 40.3153 169.596 40.4722V40.674C169.596 40.7412 169.596 40.8085 169.596 40.8982C169.596 40.9654 169.619 41.0327 169.619 41.0551L169.641 41.1H169.165V41.0775V41.0551V40.9654V40.7412C169.165 40.4049 169.074 40.1807 168.892 40.0911C168.779 40.0238 168.597 40.0014 168.325 40.0014H167.916V41.1448H167.394V38.2526H168.415V38.1854ZM168.983 38.6338C168.847 38.5665 168.642 38.5217 168.347 38.5217H167.916V39.5754H168.393C168.62 39.5754 168.779 39.553 168.892 39.5081C169.097 39.4185 169.187 39.2839 169.187 39.0597C169.165 38.858 169.119 38.701 168.983 38.6338Z" fill="#0982C6"/>
</svg>
