<svg width="158" height="50" viewBox="0 0 158 50" fill="none" xmlns="http://www.w3.org/2000/svg">
<path d="M7.95267 47.7164C9.559 48.274 11.2443 48.5661 12.956 48.5396C20.4873 48.5396 25.7277 43.043 25.7277 32.581V1.38077L28.598 0V33.1121C28.598 43.7865 23.147 50 15.405 50C12.719 50 10.1383 49.2034 7.95267 47.7164ZM4.661 44.53C6.399 45.1142 8.137 45.4859 9.66433 45.4859C15.9843 45.4859 20.1977 41.4764 20.1977 32.4482V3.77058L23.0153 2.41636V32.6872C23.0153 42.1402 18.249 46.9995 11.6393 46.9995C9.21667 46.9995 6.74133 46.0967 4.661 44.53ZM2.686 41.7154C4.029 42.1668 5.451 42.4057 6.873 42.4588C11.7973 42.4588 14.8257 39.7504 14.8257 32.6075V6.16038L17.5907 4.80616V32.1561C17.5907 40.1753 13.9567 43.7865 8.74267 43.7865C6.53067 43.8131 4.39767 43.0696 2.686 41.7154ZM12.1923 33.3776V7.27562L0 12.8253V34.0149C0 38.051 2.528 40.7594 6.241 40.7594C9.954 40.7594 12.1923 37.9979 12.1923 33.3776ZM44.2663 7.22252V16.941C44.2663 20.5258 46.373 23.3404 50.402 23.3404C53.8517 23.3404 56.4587 20.7647 56.4587 16.8614V7.4615C56.4323 6.42592 57.2223 5.54966 58.2493 5.5231H58.2757L58.6443 5.49655V4.56718H52.5877V5.49655L52.9827 5.5231C54.0097 5.54966 54.826 6.39936 54.7997 7.43495V7.4615V16.5693C54.7997 19.5433 53.2723 21.3489 50.876 21.3489C48.4797 21.3489 47.0313 19.4371 47.0313 16.5427V7.19597C47.0313 6.18694 47.5843 5.57621 48.7167 5.5231L49.0853 5.49655V4.56718H42.186V5.49655L42.581 5.5231C43.7133 5.62932 44.2663 6.18694 44.2663 7.22252ZM52.456 27.9873L52.851 28.0138C53.8253 28.0669 54.5363 28.4652 54.5363 29.5539V35.2629H47.716V29.5539C47.716 28.4387 48.4533 28.0935 49.4013 28.0138L49.77 27.9873V27.0579H42.8707V27.9873L43.2657 28.0138C44.24 28.0669 44.951 28.4652 44.951 29.5539V42.9368C44.951 44.0521 44.2137 44.4238 43.2657 44.4769L42.8707 44.5035V45.4328H49.77V44.5035L49.4013 44.4769C48.427 44.3972 47.716 44.0255 47.716 42.9368V36.6968H54.51V42.9368C54.51 44.0521 53.7727 44.4238 52.8247 44.4769L52.4297 44.5035V45.4328H59.329V44.5035L58.9603 44.4769C58.0123 44.3972 57.275 44.0255 57.275 42.9368V29.5539C57.275 28.4387 58.0123 28.0935 58.9603 28.0138L59.329 27.9873V27.0579H52.456V27.9873ZM58.6443 9.98407V10.8603L59.171 10.8869C59.961 10.94 60.4613 11.3383 60.4613 12.427V20.4992C60.4613 21.5879 59.9083 21.9862 59.0393 22.0393L58.6443 22.0659V22.9687H64.8063V22.0659L64.4377 22.0393C63.5423 21.9862 63.0157 21.5879 63.0157 20.4992V16.1976C63.0683 13.0377 64.4113 11.1524 66.0177 11.1524C67.229 11.1524 68.0453 12.0021 68.0453 13.6219V20.4727C68.0453 21.5613 67.4923 21.9596 66.6233 22.0127L66.2283 22.0393V22.9421H72.3903V22.0393L72.0217 22.0127C71.1263 21.9596 70.5997 21.5613 70.5997 20.4727V13.3032C70.5997 11.2586 69.362 9.55921 66.8867 9.55921C65.1487 9.55921 63.6213 10.6213 63.042 12.4801V9.61232L58.6443 9.98407ZM94.2207 23.2342C96.854 23.2342 98.3287 21.4286 98.9343 19.384L97.802 19.0653C97.2753 20.4726 96.38 21.5879 94.563 21.5879C92.4563 21.5879 91.0343 19.5698 91.0343 16.3569H99.1187V15.5868C99.1187 12.2146 97.1437 9.47956 93.9573 9.47956C90.5603 9.47956 88.2957 12.7722 88.2957 16.3569C88.2957 19.9416 90.4813 23.2342 94.2207 23.2342ZM93.931 10.9665C95.353 10.9665 96.2747 12.3208 96.38 15.0558H91.0607C91.324 12.5332 92.3773 10.9665 93.931 10.9665ZM81.4227 20.0212C81.4227 22.0659 82.634 23.2342 84.609 23.2342C86.426 23.2342 87.6373 21.88 88.164 19.9681L87.216 19.7026C86.8473 20.8178 86.2417 21.4817 85.4253 21.4817C84.3193 21.4817 83.977 20.6851 83.977 19.7292V11.2321H87.532V9.87786H83.977V5.84174H82.6867C82.1863 8.89538 80.659 9.98407 79.0527 10.3293V11.2586H81.449L81.4227 20.0212ZM75.9717 7.51461C76.9197 7.48805 77.657 6.6649 77.6307 5.70898C77.6043 4.80616 76.867 4.08922 75.9717 4.03611C75.05 4.03611 74.3127 4.80616 74.3127 5.73553C74.26 6.71801 74.9973 7.48805 75.9717 7.51461C75.9453 7.51461 75.9453 7.51461 75.9717 7.51461ZM74.7603 12.427V20.4992C74.7603 21.5879 74.2073 21.9862 73.3383 22.0393L72.9433 22.0659V22.9687H79.1053V22.0659L78.7367 22.0393C77.8413 21.9862 77.3147 21.5879 77.3147 20.4992V9.63887L72.8117 9.98407V10.8603L73.47 10.8869C74.26 10.8869 74.7603 11.3117 74.7603 12.427ZM105.755 23.2342C107.466 23.2342 108.809 22.3314 109.362 20.8178V22.9687H113.707V22.0924L113.339 22.0659C112.443 22.0127 111.917 21.6144 111.917 20.5258V4.24854L107.493 4.64684V5.5231L108.072 5.54965C108.862 5.57621 109.362 6.00106 109.362 7.08975V11.8163C108.783 10.3558 107.466 9.47956 105.755 9.47956C102.358 9.47956 100.409 12.7722 100.409 16.3569C100.409 19.9416 102.331 23.2342 105.755 23.2342ZM106.176 10.9665C108.098 10.9665 109.362 13.0643 109.362 16.3303C109.362 19.5964 108.125 21.6941 106.176 21.6941C104.359 21.6941 103.148 19.6229 103.148 16.3303C103.148 13.0377 104.359 10.9665 106.176 10.9665ZM144.465 31.9968C142.964 31.9968 141.647 33.0058 141.094 34.7849V32.103L136.723 32.4482V33.3245L137.249 33.351C138.039 33.4041 138.54 33.8024 138.54 34.8911V42.9634C138.54 44.0786 138.013 44.4504 137.118 44.5035L136.723 44.53V45.4328H142.885V44.53L142.516 44.5035C141.621 44.4504 141.094 44.052 141.094 42.9634V38.5555C141.147 35.2894 142.542 33.2183 144.28 33.2183C144.596 33.1917 144.912 33.3245 145.149 33.5635C144.702 33.8024 144.412 34.2804 144.412 34.7849C144.412 35.555 145.018 36.1657 145.781 36.1657C146.545 36.1657 147.151 35.5284 147.151 34.6522C147.151 33.0324 145.913 31.9968 144.465 31.9968ZM152.839 31.9437C149.442 31.9437 147.177 35.2098 147.177 38.821C147.177 42.4323 149.363 45.6984 153.102 45.6984C155.735 45.6984 157.21 43.8927 157.816 41.8481L156.683 41.5295C156.157 42.9368 155.261 44.052 153.444 44.052C151.338 44.052 149.916 42.034 149.916 38.821H158V38.051C158 34.6787 156.025 31.9437 152.839 31.9437ZM149.942 37.5199C150.205 34.9708 151.232 33.4307 152.812 33.4307C154.234 33.4307 155.156 34.7849 155.261 37.5199H149.942ZM134.511 43.2554V36.4047C134.511 33.59 132.773 31.9437 129.823 31.9437C127.295 31.9437 125.057 33.6166 125.057 35.5284C125.031 36.2985 125.636 36.9357 126.4 36.9357C127.164 36.9357 127.796 36.3516 127.796 35.5815C127.796 35.077 127.532 34.599 127.085 34.3601C127.559 33.6962 128.375 33.2979 129.402 33.2979C131.008 33.2979 131.956 34.4928 131.956 36.5109V37.1216L128.112 38.7414C125.531 39.8035 124.662 40.7594 124.662 42.4588C124.662 44.4238 126.058 45.6718 128.27 45.6718C129.902 45.6718 131.351 44.6362 131.93 43.0961V43.4944C131.93 44.8486 132.878 45.6452 134.432 45.6452C134.985 45.6452 135.538 45.5656 136.064 45.4063V44.53C134.985 44.6628 134.511 44.2379 134.511 43.2554ZM131.956 40.2815C131.825 42.5916 130.692 44.1317 129.086 44.1317C127.954 44.1317 127.216 43.3351 127.216 42.1402C127.216 41.0781 127.796 40.2284 128.875 39.7504L131.956 38.3696V40.2815ZM97.9863 42.1668C97.6177 43.2554 97.0383 43.9458 96.1957 43.9458C95.0897 43.9458 94.7473 43.1492 94.7473 42.1933V33.6962H98.3023V32.342H94.7473V28.3059H93.457C92.9567 31.3595 91.4293 32.4482 89.823 32.7934V33.7228H92.2193V42.4854C92.2193 44.53 93.4307 45.6984 95.4057 45.6984C97.2227 45.6984 98.434 44.3441 98.9607 42.4323L97.9863 42.1668ZM81.4753 43.2554V36.4047C81.4753 33.59 79.7373 31.9437 76.788 31.9437C74.26 31.9437 72.0217 33.6166 72.0217 35.5284C71.9953 36.2985 72.601 36.9357 73.3647 36.9357C74.1283 36.9357 74.7603 36.3516 74.7603 35.5815C74.7603 35.077 74.497 34.599 74.0493 34.3601C74.5233 33.6962 75.3397 33.2979 76.3667 33.2979C77.973 33.2979 78.921 34.4928 78.921 36.5109V37.1216L75.0763 38.7414C72.4957 39.8035 71.6267 40.7594 71.6267 42.4588C71.6267 44.4238 73.0223 45.6718 75.2343 45.6718C76.867 45.6718 78.3153 44.6362 78.8947 43.0961V43.4944C78.8947 44.8486 79.8427 45.6452 81.3963 45.6452C81.9493 45.6452 82.5023 45.5656 83.029 45.4063V44.53C81.9757 44.6628 81.4753 44.2379 81.4753 43.2554ZM78.9473 40.2815C78.8157 42.5916 77.6833 44.1317 76.077 44.1317C74.9447 44.1317 74.2073 43.3351 74.2073 42.1402C74.2073 41.0781 74.7867 40.2284 75.8663 39.7504L78.9473 38.3696V40.2815ZM119.501 44.0255C117.394 44.0255 115.972 42.0074 115.972 38.7945C115.972 35.5284 117.368 33.4573 119.474 33.4573C120.422 33.4573 121.133 33.7759 121.581 34.3601C121.186 34.6256 120.923 35.077 120.923 35.555C120.923 36.325 121.528 36.9357 122.292 36.9357C123.082 36.9357 123.661 36.2985 123.661 35.4222C123.661 33.8556 122.108 31.9172 119.316 31.9172C115.445 31.9172 113.207 35.1832 113.207 38.7945C113.207 42.3792 115.393 45.6718 119.132 45.6718C121.713 45.6718 123.161 43.9458 123.74 41.9809L122.608 41.6357C122.134 42.9899 121.265 44.0255 119.501 44.0255ZM88.0587 42.9634V26.7393L83.6347 27.111V27.9873L84.214 28.0138C85.004 28.0404 85.5043 28.4652 85.5043 29.5539V42.9634C85.5043 44.0786 84.9513 44.4504 84.0823 44.5035L83.6873 44.53V45.4328H89.8493V44.5566L89.4807 44.53C88.6117 44.4504 88.0587 44.052 88.0587 42.9634ZM110.863 42.9634V35.7939C110.863 33.7493 109.626 32.0499 107.15 32.0499C105.412 32.0499 103.885 33.0855 103.306 34.9708V26.7393L98.8817 27.111V27.9873L99.461 28.0138C100.251 28.0404 100.751 28.4652 100.751 29.5539V42.9634C100.751 44.0786 100.198 44.4504 99.3293 44.5035L98.9343 44.53V45.4328H105.07V44.5566L104.701 44.53C103.806 44.4769 103.279 44.0786 103.279 42.9899V38.6883C103.332 35.555 104.675 33.6431 106.281 33.6431C107.493 33.6431 108.309 34.4928 108.309 36.1126V42.9899C108.309 44.1052 107.756 44.4769 106.887 44.53L106.492 44.5566V45.4594H112.654V44.5566L112.285 44.53C111.39 44.4504 110.863 44.052 110.863 42.9634ZM65.5173 31.9437C62.1203 31.9437 59.8557 35.2363 59.8557 38.821C59.8557 42.4057 62.0413 45.6984 65.7807 45.6984C68.414 45.6984 69.8887 43.8927 70.4943 41.8481L69.362 41.5295C68.8353 42.9368 67.94 44.052 66.123 44.052C64.0163 44.052 62.5943 42.034 62.5943 38.821H70.6787V38.051C70.6787 34.6787 68.6773 31.9437 65.5173 31.9437ZM62.6207 37.5199C62.884 34.9708 63.911 33.4307 65.491 33.4307C66.913 33.4307 67.8347 34.7849 67.94 37.5199H62.6207Z" fill="#002677"/>
</svg>
