<svg width="85" height="85" viewBox="0 0 85 85" fill="none" xmlns="http://www.w3.org/2000/svg">
<path d="M84 42.5C84 65.4198 65.4198 84 42.5 84C19.5802 84 1 65.4198 1 42.5C1 19.5802 19.5802 1 42.5 1C65.4198 1 84 19.5802 84 42.5Z" fill="#12C64B" stroke="#2D2A26" stroke-width="2"/>
<path d="M57.853 58.2105C57.5164 58.7858 56.9652 59.2041 56.3205 59.3734C55.6758 59.5427 54.9903 59.4493 54.4144 59.1137C47.8028 55.25 40.1672 54.6318 34.9224 54.7671C31.5154 54.8543 28.1272 55.3011 24.8141 56.1C24.1973 56.2092 23.5619 56.0844 23.0323 55.75C22.5026 55.4156 22.1167 54.8956 21.9501 54.2918C21.7834 53.688 21.848 53.0437 22.1311 52.4849C22.4143 51.9262 22.8957 51.4931 23.4812 51.2705C27.1312 50.3632 30.8682 49.8516 34.6278 49.7443C38.2257 49.6115 41.8274 49.8722 45.3687 50.5219C49.4456 51.2598 53.3659 52.6908 56.9596 54.7526C57.2467 54.9196 57.4978 55.142 57.6984 55.4067C57.899 55.6715 58.0451 55.9734 58.1282 56.2951C58.2113 56.6167 58.2297 56.9516 58.1825 57.2804C58.1353 57.6092 58.0233 57.9253 57.853 58.2105Z" fill="white"/>
<path d="M62.5279 48.4983C62.2657 48.9484 61.89 49.3218 61.4383 49.5812C60.9865 49.8405 60.4746 49.9767 59.9537 49.9761C59.4252 49.9769 58.9063 49.8351 58.4517 49.5656C50.623 44.992 41.5821 44.2531 35.3665 44.4463C31.3311 44.5483 27.3179 45.0777 23.3941 46.0256C22.6435 46.2022 21.8536 46.0811 21.1905 45.6875C20.5273 45.294 20.0426 44.6587 19.8381 43.9152C19.6336 43.1717 19.7254 42.3778 20.094 41.7005C20.4626 41.0232 21.0794 40.5152 21.8148 40.2832C26.1388 39.2132 30.5659 38.614 35.0188 38.4963C39.2818 38.3322 43.5498 38.6416 47.7446 39.4187C52.5695 40.2934 57.2087 41.989 61.4605 44.4318C62.1399 44.8308 62.6336 45.4827 62.8336 46.2447C63.0336 47.0068 62.9237 47.8171 62.5279 48.4983Z" fill="white"/>
<path d="M68.5794 37.8587C68.3378 38.2736 68.0167 38.6367 67.6344 38.9272C67.2522 39.2176 66.8163 39.4297 66.3519 39.5513C65.8875 39.673 65.4036 39.7016 64.9281 39.6358C64.4525 39.5699 63.9947 39.4108 63.5808 39.1675C44.9677 28.2914 20.8248 34.7582 20.5978 34.821C20.1287 34.9696 19.6343 35.0219 19.1444 34.9749C18.6545 34.9278 18.1791 34.7824 17.7468 34.5472C17.3145 34.312 16.9341 33.9919 16.6284 33.6062C16.3228 33.2204 16.0981 32.7769 15.968 32.3023C15.8379 31.8277 15.8049 31.3316 15.8711 30.8439C15.9373 30.3562 16.1013 29.8869 16.3532 29.4642C16.6052 29.0414 16.9399 28.6738 17.3373 28.3835C17.7347 28.0932 18.1866 27.8861 18.666 27.7746C23.9571 26.4706 29.3733 25.7403 34.8208 25.5965C40.0479 25.4017 45.2806 25.7807 50.4251 26.7266C56.3414 27.7904 62.0322 29.8583 67.2512 32.8408C67.6693 33.0817 68.0356 33.403 68.329 33.7862C68.6223 34.1693 68.8369 34.6067 68.9604 35.0732C69.0838 35.5397 69.1137 36.026 69.0483 36.5041C68.9829 36.9821 68.8236 37.4425 68.5794 37.8587Z" fill="white"/>
</svg>
